<?xml version="1.0" encoding="utf-8"?><svg width="50" height="50" fill="none" xmlns="http://www.w3.org/2000/svg" viewBox="0 0 50 50"><rect width="50" height="50" rx="25" fill="#0066FE"/><path d="M19.6 37c-1.097 0-1.937-.28-2.52-.84-.56-.583-.84-1.412-.84-2.485V15.65c0-1.073.28-1.89.84-2.45.583-.583 1.423-.875 2.52-.875h11.865c.84 0 1.47.21 1.89.63.42.42.63 1.027.63 1.82 0 .817-.21 1.447-.63 1.89-.42.42-1.05.63-1.89.63H22.4v4.69h8.295c.817 0 1.435.21 1.855.63.443.42.665 1.038.665 1.855s-.222 1.435-.665 1.855c-.42.42-1.038.63-1.855.63H22.4v5.075h9.065c.84 0 1.47.222 1.89.665.42.42.63 1.027.63 1.82 0 .817-.21 1.435-.63 1.855-.42.42-1.05.63-1.89.63H19.6z" fill="#fff"/></svg>