<svg width="50" height="50" viewBox="0 0 50 50" fill="none" xmlns="http://www.w3.org/2000/svg">
<rect width="50" height="50" rx="25" fill="#0066FE"/>
<path d="M19.6 37C18.5033 37 17.6633 36.72 17.08 36.16C16.52 35.5767 16.24 34.7483 16.24 33.675V15.65C16.24 14.5767 16.52 13.76 17.08 13.2C17.6633 12.6167 18.5033 12.325 19.6 12.325H31.465C32.305 12.325 32.935 12.535 33.355 12.955C33.775 13.375 33.985 13.9817 33.985 14.775C33.985 15.5917 33.775 16.2217 33.355 16.665C32.935 17.085 32.305 17.295 31.465 17.295H22.4V21.985H30.695C31.5117 21.985 32.13 22.195 32.55 22.615C32.9933 23.035 33.215 23.6533 33.215 24.47C33.215 25.2867 32.9933 25.905 32.55 26.325C32.13 26.745 31.5117 26.955 30.695 26.955H22.4V32.03H31.465C32.305 32.03 32.935 32.2517 33.355 32.695C33.775 33.115 33.985 33.7217 33.985 34.515C33.985 35.3317 33.775 35.95 33.355 36.37C32.935 36.79 32.305 37 31.465 37H19.6Z" fill="white"/>
</svg>
