<?xml version="1.0" encoding="utf-8"?><svg viewBox="0 0 50 50" xmlns="http://www.w3.org/2000/svg" xmlns:xlink="http://www.w3.org/1999/xlink"><style>:root>svg{display:none}:root>svg:target{display:block}</style><svg fill="none" viewBox="0 0 24 24" id="arrow-down" xmlns="http://www.w3.org/2000/svg"><path d="M19 8.5l-7 7-7-7" stroke="#130F26" stroke-width="1.5" stroke-linecap="round" stroke-linejoin="round" opacity=".6"/></svg><svg fill="none" viewBox="0 0 50 50" id="logo" xmlns="http://www.w3.org/2000/svg"><rect width="50" height="50" rx="25" fill="#0066FE"/><path d="M19.6 37c-1.097 0-1.937-.28-2.52-.84-.56-.583-.84-1.412-.84-2.485V15.65c0-1.073.28-1.89.84-2.45.583-.583 1.423-.875 2.52-.875h11.865c.84 0 1.47.21 1.89.63.42.42.63 1.027.63 1.82 0 .817-.21 1.447-.63 1.89-.42.42-1.05.63-1.89.63H22.4v4.69h8.295c.817 0 1.435.21 1.855.63.443.42.665 1.038.665 1.855s-.222 1.435-.665 1.855c-.42.42-1.038.63-1.855.63H22.4v5.075h9.065c.84 0 1.47.222 1.89.665.42.42.63 1.027.63 1.82 0 .817-.21 1.435-.63 1.855-.42.42-1.05.63-1.89.63H19.6z" fill="#fff"/></svg><svg fill="none" viewBox="0 0 24 24" id="points" xmlns="http://www.w3.org/2000/svg"><g clip-path="url(#cclip0_2_1899)"><path d="M8 12c0-1.1-.9-2-2-2s-2 .9-2 2 .9 2 2 2 2-.9 2-2zm2 0c0 1.1.9 2 2 2s2-.9 2-2-.9-2-2-2-2 .9-2 2zm6 0c0 1.1.9 2 2 2s2-.9 2-2-.9-2-2-2-2 .9-2 2z" fill="#1C1D21"/></g><defs><clipPath id="cclip0_2_1899"><path fill="#fff" transform="rotate(-90 12 12)" d="M0 0h24v24H0z"/></clipPath></defs></svg><svg fill="none" viewBox="0 0 24 24" id="search" xmlns="http://www.w3.org/2000/svg"><g opacity=".6" stroke="#1C1D21" stroke-width="2" stroke-linecap="round" stroke-linejoin="round"><path clip-rule="evenodd" d="M10.5 18a7.5 7.5 0 100-15 7.5 7.5 0 000 15z"/><path d="M21 21l-5.2-5.2"/></g></svg><svg fill="none" viewBox="0 0 24 24" id="shield" xmlns="http://www.w3.org/2000/svg"><g opacity=".6" stroke="#1C1D21" stroke-width="1.5" stroke-linecap="round" stroke-linejoin="round"><path clip-rule="evenodd" d="M11.985 21.606s7.672-2.323 7.672-8.727c0-6.405.277-6.905-.337-7.521-.617-.616-6.33-2.608-7.335-2.608-1.006 0-6.72 1.992-7.334 2.608-.616.616-.338 1.116-.338 7.521 0 6.404 7.672 8.727 7.672 8.727z"/><path d="M9.386 11.875l1.892 1.895 3.898-3.9"/></g></svg></svg>